<?xml version="1.0" encoding="UTF-8"?>
<svg version="1.1" xmlns="http://www.w3.org/2000/svg" width="989" height="1089">
<path d="M0 0 C0.8264502 0.36625488 1.65290039 0.73250977 2.50439453 1.10986328 C14.49799026 6.46859466 26.72173116 12.30045412 37.5612793 19.76342773 C44.26898966 24.34766109 50.11865938 26.4434469 58.0625 27.9375 C93.77384099 35.4900491 128.88903678 48.54192105 158 71 C158.9384375 71.71542969 159.876875 72.43085937 160.84375 73.16796875 C191.74815653 97.54515148 209.16168317 130.08237435 215.609375 168.64453125 C218.2248999 191.94754304 217.0544855 217.74322914 209.36645508 239.91870117 C205.79119838 250.31202983 206.13378726 256.60923748 209.19677734 267.01660156 C210.9629403 273.5766354 212.18302699 280.27536379 213.5 286.9375 C213.65201874 287.69937622 213.80403748 288.46125244 213.96066284 289.24621582 C221.80318042 328.60366057 225.23791159 368.02735942 225.25 408.125 C225.25044186 408.79795105 225.25088371 409.4709021 225.25133896 410.16424561 C225.26532906 450.91189825 222.38132568 491.64378332 214.08032227 531.62329102 C213.84333618 532.79976196 213.84333618 532.79976196 213.6015625 534 C213.46057129 534.66 213.31958008 535.32 213.17431641 536 C212.79939813 540.30158334 214.17366104 543.69887984 216.1875 547.421875 C216.63472412 548.26991699 217.08194824 549.11795898 217.54272461 549.99169922 C218.02362549 550.90193848 218.50452637 551.81217773 219 552.75 C231.76054985 577.60224205 240.40631553 604.72968445 240.31567383 632.82861328 C240.31251279 634.86675598 240.33609244 636.9034411 240.36132812 638.94140625 C240.42087996 651.16019224 238.54619497 662.95835841 234.375 674.5 C234.12339111 675.20012207 233.87178223 675.90024414 233.61254883 676.62158203 C229.01155482 688.78947741 221.66385479 699.36336151 213 709 C212.32710937 709.75539063 211.65421875 710.51078125 210.9609375 711.2890625 C194.65242809 728.57486087 172.91270948 738.81132569 151 747 C151 750.81320011 152.2889593 752.59527007 154.125 755.9375 C166.91036299 780.38578433 169.93083422 810.00223192 161.96875 836.421875 C157.18412748 849.67657252 150.4898107 861.56626497 141 872 C140.38769531 872.70511719 139.77539062 873.41023437 139.14453125 874.13671875 C124.76916541 889.73812859 101.57857681 899.08635256 80.59448242 900.17700195 C76.45859098 900.24478574 72.32387263 900.29279179 68.1875 900.3125 C67.43511047 900.31910645 66.68272095 900.32571289 65.90753174 900.33251953 C54.59413744 900.40698729 43.8852534 899.57784035 32.86791992 896.7199707 C30.05793219 896.09447226 27.86418787 895.6845001 25 896 C21.74844027 898.20963121 19.47537126 900.97602915 17 904 C15.29975757 905.47159753 13.57412341 906.9149641 11.8125 908.3125 C8.29468342 911.13448473 4.82430792 913.99272837 1.40966797 916.93896484 C-65.87813895 974.80524453 -156.24237873 1012.20402039 -259.6875 1018.25 C-260.3465332 1018.25167175 -261.00556641 1018.25334351 -261.68457031 1018.25506592 C-272.73554996 1018.25674316 -283.55914224 1017.91759949 -293.96875 1013.8359375 C-300.09722315 1012.14586887 -306.14425189 1014.48963705 -312.12768555 1016.06982422 C-341.59037818 1023.8227932 -373.99928701 1027.12160305 -404 1020 C-405.14146484 1019.74186523 -406.28292969 1019.48373047 -407.45898438 1019.21777344 C-451.08897823 1009.27383491 -492.08965951 994.22633184 -525 963 C-525.63421875 962.44183594 -526.2684375 961.88367188 -526.921875 961.30859375 C-541.81769757 947.72502221 -550.78413906 927.34055979 -555 908 C-555.1959375 907.21753906 -555.391875 906.43507813 -555.59375 905.62890625 C-556.18368176 901.81136708 -556.1045168 898.04334968 -556.0625 894.1875 C-556.05798828 893.39923828 -556.05347656 892.61097656 -556.04882812 891.79882812 C-556.03711312 889.86585239 -556.01917998 887.93291607 -556 886 C-557.25425781 885.61972656 -558.50851562 885.23945312 -559.80078125 884.84765625 C-565.55370827 882.92401777 -570.82766664 880.25637201 -576.1875 877.4375 C-577.7048877 876.64122192 -577.7048877 876.64122192 -579.25292969 875.82885742 C-587.3706468 871.48916062 -594.77872881 866.69005924 -602 861 C-602.92296875 860.28585937 -603.8459375 859.57171875 -604.796875 858.8359375 C-615.26384107 850.51681707 -625.58471473 841.4240953 -634 831 C-634.8864256 829.93725542 -635.77317581 828.87478155 -636.66015625 827.8125 C-659.89328134 799.6942262 -676.54444054 767.14172509 -689 733 C-689.3697998 731.9879248 -689.73959961 730.97584961 -690.12060547 729.93310547 C-706.53371118 684.36804539 -719.58175953 630.74104738 -717 582 C-716.95601074 580.94796387 -716.91202148 579.89592773 -716.86669922 578.81201172 C-713.5086091 500.64733524 -693.30815074 420.86247884 -647.10058594 356.71972656 C-645.82351066 354.87890866 -645.82351066 354.87890866 -645 352 C-645.98503749 349.65198013 -647.02840119 347.44675555 -648.1875 345.1875 C-662.39243281 316.03687553 -660.02076224 282.13900633 -650 252 C-639.27894928 221.98650013 -623.32864852 201.11680353 -600.99853516 178.86816406 C-599.23351456 177.1085652 -597.47398867 175.34359603 -595.71484375 173.578125 C-589.97912481 167.83868333 -584.20958108 162.23143157 -578 157 C-576.88155739 156.02748323 -575.76434129 155.05355387 -574.6484375 154.078125 C-567.16365252 147.59545388 -559.52717454 141.35772613 -551.68945312 135.30712891 C-550.06336787 134.04902769 -548.44493345 132.7817087 -546.828125 131.51171875 C-522.57790703 112.60016817 -495.88633611 93.98961826 -467.88574219 81.02075195 C-465.06339564 79.49301621 -463.76975745 77.23468257 -461.9375 74.625 C-457.10809412 67.95768664 -451.71069679 61.92026364 -446 56 C-445.41379883 55.39188477 -444.82759766 54.78376953 -444.22363281 54.15722656 C-436.54455423 46.23780123 -428.77530912 38.71399489 -420 32 C-419.43265137 31.55624023 -418.86530273 31.11248047 -418.28076172 30.65527344 C-367.56645321 -8.99921363 -306.50316354 -30.34094213 -243 -38 C-242.07944824 -38.11859375 -241.15889648 -38.2371875 -240.21044922 -38.359375 C-160.13063435 -48.38613773 -73.17428672 -32.53975628 0 0 Z M-265.109375 347.5078125 C-267.77418199 349.80530826 -270.49413717 352.00096212 -273.25 354.1875 C-287.50396152 365.79101772 -301.10612349 378.99274874 -313 393 C-313.80953125 393.92039062 -314.6190625 394.84078125 -315.453125 395.7890625 C-345.69534198 430.41994817 -364.58011795 471.57603045 -366 518 C-366.03996094 519.134375 -366.07992188 520.26875 -366.12109375 521.4375 C-366.85353626 562.10960174 -352.9999658 597.68013253 -324.9921875 627.0078125 C-316.38025805 635.77461287 -306.05669707 642.97606667 -296 650 C-295.67 650 -295.34 650 -295 650 C-295.10828125 648.19595703 -295.10828125 648.19595703 -295.21875 646.35546875 C-297.22488258 610.62991771 -296.0558483 574.69566486 -288.40234375 539.62890625 C-286.83412801 531.9472653 -286.5687824 524.50707651 -286.5 516.6875 C-286.27857375 505.22063674 -285.60179884 494.1914069 -283 483 C-282.82984375 482.24928223 -282.6596875 481.49856445 -282.484375 480.72509766 C-274.88792576 447.9179325 -259.59177679 416.55699722 -242 388 C-241.52804199 387.23300781 -241.05608398 386.46601563 -240.56982422 385.67578125 C-226.42542371 362.79087855 -210.79612372 341.01229355 -194 320 C-197.80014774 315.445213 -201.65665546 311.04720741 -206 307 C-223.24797627 307 -252.69806542 336.72493013 -265.109375 347.5078125 Z " fill="#FEFEFE" transform="translate(733,54)"/>
<path d="M0 0 C2.24876211 -0.01148318 4.49749776 -0.0318763 6.74609375 -0.06152344 C22.88471391 -0.27294125 38.08928743 0.99083812 53.89453125 4.29516602 C55.11278595 4.54978104 55.11278595 4.54978104 56.35565186 4.80953979 C61.46047703 5.90166853 66.52497137 7.12622077 71.58203125 8.42016602 C72.33635437 8.61113861 73.09067749 8.80211121 73.86785889 8.99887085 C107.39324749 17.53342472 138.14103636 30.67891657 167.89453125 48.29516602 C168.7035791 48.76809082 169.51262695 49.24101562 170.34619141 49.72827148 C190.36966486 61.45267903 209.41916863 75.22433161 226.4375 91.02172852 C228.61552778 93.03701018 230.83062411 94.98789038 233.08203125 96.92016602 C239.90480636 102.86572718 246.08284733 109.36668463 251.89453125 116.29516602 C252.34957031 116.83641113 252.80460938 117.37765625 253.2734375 117.93530273 C303.66531823 178.13813467 331.06545509 251.69843032 343.29248047 328.53344727 C343.66207388 330.84273162 344.04162135 333.15048241 344.43798828 335.45532227 C347.94027758 355.9056312 347.18545937 376.62285834 346.89453125 397.29516602 C339.66410271 393.86848266 332.92074777 389.95232647 326.20703125 385.60766602 C325.24297363 384.98827148 324.27891602 384.36887695 323.28564453 383.73071289 C320.48382984 381.92610673 317.6877356 380.1130648 314.89453125 378.29516602 C314.18570801 377.83416504 313.47688477 377.37316406 312.74658203 376.89819336 C290.45704676 362.34420342 268.87831746 346.66887798 247.89453125 330.29516602 C247.35054687 329.87203125 246.8065625 329.44889648 246.24609375 329.01293945 C236.68666956 321.57354885 227.26862282 313.96627205 217.89453125 306.29516602 C216.83564697 305.42988281 216.83564697 305.42988281 215.75537109 304.54711914 C207.15736917 297.5164512 198.63445185 290.41087064 190.22265625 283.15844727 C186.96424999 280.34964024 183.68248342 277.56928239 180.39453125 274.79516602 C176.43424083 271.45348238 172.49046255 268.09386756 168.56323242 264.71337891 C159.32109021 256.7618911 149.93398258 249.04258811 140.26953125 241.60766602 C139.57690186 241.07278564 138.88427246 240.53790527 138.1706543 239.98681641 C134.63531865 237.28484868 131.07316979 234.75140183 127.31640625 232.36547852 C122.79718626 229.38749821 119.35104359 225.88612332 115.76953125 221.85766602 C114.4720419 220.4391767 113.17250524 219.02255777 111.87109375 217.60766602 C110.88737793 216.53452148 110.88737793 216.53452148 109.88378906 215.43969727 C101.96179573 206.8993451 93.77170527 198.66288301 84.609375 191.45141602 C82.15486597 189.50193546 79.78302394 187.48022933 77.42016602 185.42138672 C63.07220112 172.98795427 47.39270832 162.63811757 30.89453125 153.29516602 C30.07678223 152.82868652 29.2590332 152.36220703 28.41650391 151.8815918 C6.34764158 139.4234334 -17.24203768 130.26300949 -42.10546875 125.29516602 C-43.12785645 125.08778809 -44.15024414 124.88041016 -45.20361328 124.66674805 C-68.62046323 120.08337884 -92.51288708 119.76369782 -116.10546875 123.29516602 C-117.20971191 123.45645996 -118.31395508 123.61775391 -119.45166016 123.78393555 C-154.90826292 129.05788723 -187.17456567 138.88322538 -219.10546875 155.29516602 C-219.93127441 155.71910645 -220.75708008 156.14304687 -221.60791016 156.57983398 C-249.43523311 171.05050853 -275.54064673 190.52594026 -298.48046875 211.88110352 C-299.87524175 213.16379654 -301.27661483 214.44057293 -302.72070312 215.66748047 C-309.73010555 221.63082744 -316.12676403 228.20707826 -322.60546875 234.73266602 C-323.82137989 235.95360292 -325.03752391 237.17430794 -326.25390625 238.39477539 C-329.20711841 241.35890615 -332.15716273 244.3261556 -335.10546875 247.29516602 C-339.15187465 241.22555717 -339.46971007 234.45287983 -339.41796875 227.35766602 C-339.4123291 226.53210205 -339.40668945 225.70653809 -339.40087891 224.85595703 C-339.04069111 206.20999794 -333.41582945 188.96589744 -325.60546875 172.17016602 C-325.2501709 171.40075684 -324.89487305 170.63134766 -324.52880859 169.83862305 C-317.52591075 155.31655763 -305.17808107 144.19869734 -293.90307617 132.96240234 C-292.03903631 131.10374493 -290.18043363 129.23976987 -288.32226562 127.37524414 C-282.41945218 121.46883547 -276.49863728 115.67562856 -270.10546875 110.29516602 C-269.02172978 109.34659271 -267.93965521 108.39611396 -266.859375 107.44360352 C-257.9158563 99.64237306 -248.62339844 92.3802427 -239.10546875 85.29516602 C-238.39406738 84.7627832 -237.68266602 84.23040039 -236.94970703 83.68188477 C-225.52740034 75.16372999 -213.70112686 67.41038848 -201.61376953 59.87182617 C-199.42722618 58.49741533 -197.26025194 57.09944075 -195.1015625 55.68188477 C-154.39051822 29.14193126 -105.59583048 8.63083008 -57.10546875 3.29516602 C-55.45179879 3.10136135 -53.7981528 2.90735206 -52.14453125 2.71313477 C-34.76553496 0.74515088 -17.48368431 0.06175754 0 0 Z " fill="#C8001A" transform="translate(452.10546875,127.704833984375)"/>
<path d="M0 0 C4.33628343 2.78066605 8.29071607 5.81457337 12.1875 9.1875 C13.33918037 10.1739521 14.49153393 11.15961876 15.64453125 12.14453125 C16.496521 12.872771 16.496521 12.872771 17.36572266 13.61572266 C19.67381786 15.57074205 22.02307265 17.47306772 24.375 19.375 C30.73688922 24.55499978 36.90312542 29.95450407 43.09033203 35.34033203 C51.94612954 43.0367922 60.88674846 50.60904451 70 58 C71.72974276 59.4159632 73.45889561 60.8326473 75.1875 62.25 C77.1248107 63.83356495 79.06233138 65.41687303 81 67 C81.60505371 67.4954834 82.21010742 67.9909668 82.83349609 68.50146484 C91.14851202 75.30805027 99.50891014 82.02675147 108.06640625 88.52734375 C110.3303306 90.25158513 112.58696445 91.98517594 114.84375 93.71875 C179.71708 143.48368445 250.96039731 188.03873727 329.5390625 212.34375 C330.45026855 212.62911621 331.36147461 212.91448242 332.30029297 213.20849609 C334.10628187 213.73797846 335.93017462 214.20967926 337.76611328 214.62353516 C342.12465288 215.66448808 345.13394829 216.41007047 347.6640625 220.2734375 C348.35593447 221.62168366 349.0079504 222.99091029 349.625 224.375 C349.98561523 225.12104492 350.34623047 225.86708984 350.71777344 226.63574219 C351.86532562 229.07015639 352.94148258 231.52565566 354 234 C354.35868164 234.82983398 354.71736328 235.65966797 355.08691406 236.51464844 C365.45141554 260.95532689 372.99285895 289.66648762 364.3125 315.828125 C354.70689731 339.04166483 336.58863611 353.05508848 313.90283203 362.91113281 C309.33097822 364.79461927 304.69593543 366.45454751 300 368 C299.04552979 368.31541748 299.04552979 368.31541748 298.07177734 368.63720703 C285.16479367 372.81815609 277.19952909 372.16567058 264.375 368.1875 C263.72239197 367.98748383 263.06978394 367.78746765 262.3973999 367.58139038 C205.58106212 350.14178563 151.95522936 323.31845178 101 293 C99.27872399 291.98294064 97.55737228 290.96600937 95.8359375 289.94921875 C87.4025206 284.94697417 79.05823142 279.8161835 70.7890625 274.546875 C69.84268921 273.94405701 68.89631592 273.34123901 67.92126465 272.72015381 C58.33074534 266.59589903 48.80918264 260.36861384 39.31054688 254.10302734 C36.47479525 252.2333822 33.63591808 250.36854849 30.796875 248.50390625 C21.77037268 242.56291079 12.81834079 236.55683448 4.06689453 230.21679688 C-0.67973678 226.78586133 -5.49776635 223.45932189 -10.3125 220.125 C-17.05998762 215.4421733 -23.79704479 210.74635948 -30.5 206 C-32.56351901 204.54249866 -34.6275705 203.08575545 -36.69189453 201.62939453 C-38.35255211 200.45706232 -40.0122704 199.28339915 -41.67138672 198.10888672 C-62.13211549 183.42340492 -62.13211549 183.42340492 -84 171 C-89.05092687 112.52149111 -36.11386844 42.89377964 -1 1 C-0.67 0.67 -0.34 0.34 0 0 Z " fill="#009AE0" transform="translate(568,398)"/>
<path d="M0 0 C0 2 0 2 -2.109375 4.2109375 C-2.79676758 4.87174316 -2.79676758 4.87174316 -3.49804688 5.54589844 C-11.11212348 12.91739393 -18.15448441 20.97639126 -24.76953125 29.2421875 C-26.77980101 31.72773995 -28.84228715 34.15879295 -30.92944336 36.57983398 C-36.62913812 43.2051632 -41.90790501 50.08557217 -47.10546875 57.109375 C-49.64104131 60.53469542 -52.2470141 63.89512438 -54.875 67.25 C-75.54678598 93.92839963 -93.65521648 122.94223222 -109.70507812 152.60693359 C-110.59006555 154.24242505 -111.47960189 155.87546106 -112.37304688 157.50634766 C-126.0881807 182.61783583 -137.27500928 208.75431398 -146 236 C-146.31517578 236.96131836 -146.63035156 237.92263672 -146.95507812 238.91308594 C-154.09825168 260.75270528 -159.24739943 283.17960859 -162 306 C-162.10296387 306.81049805 -162.20592773 307.62099609 -162.31201172 308.45605469 C-165.27570378 332.47460171 -165.6098227 358.03753542 -162 382 C-161.83822266 383.09296387 -161.67644531 384.18592773 -161.50976562 385.31201172 C-154.62437716 429.72276732 -137.38670288 471.61509105 -111 508 C-110.24074219 509.05445313 -109.48148438 510.10890625 -108.69921875 511.1953125 C-103.1389406 518.76045116 -97.13229193 525.89895643 -91 533 C-90.40703125 533.69480469 -89.8140625 534.38960937 -89.203125 535.10546875 C-77.84282688 548.31522162 -77.84282688 548.31522162 -65.1328125 560.1796875 C-62.86354287 562.11646341 -60.69699592 564.14826967 -58.52734375 566.1953125 C-51.8958073 572.43491418 -44.97489173 578.14233959 -37.74072266 583.66650391 C-35.99970031 585.00022958 -34.270123 586.34759676 -32.54296875 587.69921875 C-27.0200721 592.00709405 -21.47968136 596.15797058 -15.51171875 599.84375 C-15.01285156 600.2253125 -14.51398438 600.606875 -14 601 C-14 601.66 -14 602.32 -14 603 C-36.04859977 611.39401053 -57.69087161 619.01383012 -81 623 C-82.28648437 623.226875 -83.57296875 623.45375 -84.8984375 623.6875 C-122.61266832 629.38021409 -160.5861926 622.0176103 -191.66015625 599.40234375 C-229.52949462 570.75725449 -252.22459631 530.67365933 -269 487 C-269.50225098 485.71222656 -269.50225098 485.71222656 -270.01464844 484.3984375 C-280.33344671 457.7039156 -286.52207546 429.20841429 -291 401 C-291.10548157 400.33977844 -291.21096313 399.67955688 -291.31964111 398.99932861 C-301.66221547 333.64610603 -290.32800848 262.51207274 -264 202 C-263.51144531 200.8759375 -263.02289063 199.751875 -262.51953125 198.59375 C-261.06549626 195.36799171 -259.54474622 192.18333216 -258 189 C-257.65775391 188.2790918 -257.31550781 187.55818359 -256.96289062 186.81542969 C-248.68719161 169.41652031 -239.00545215 153.10009338 -227 138 C-226.28457031 137.0925 -225.56914062 136.185 -224.83203125 135.25 C-219.61366581 128.74782431 -214.05714375 122.59321032 -208.38085938 116.49414062 C-207.05955319 115.06443874 -205.75588424 113.61849722 -204.453125 112.171875 C-198.89996764 106.01291865 -193.16611632 100.06209019 -187.3125 94.1875 C-186.2613501 93.12946167 -186.2613501 93.12946167 -185.18896484 92.05004883 C-181.1781624 88.05104009 -177.06467788 84.23269407 -172.77514648 80.53442383 C-170.59811908 78.65261703 -168.48877024 76.70235505 -166.375 74.75 C-160.7634322 69.69445644 -154.87582064 65.04621737 -148.88720703 60.45019531 C-147.62736526 59.48208922 -146.37052545 58.51006415 -145.11669922 57.53417969 C-113.72370827 33.11293127 -77.97082674 13.73272976 -39 5 C-37.82050781 4.72414063 -36.64101563 4.44828125 -35.42578125 4.1640625 C-23.76100612 1.52544595 -11.99392243 -0.50797789 0 0 Z " fill="#256237" transform="translate(349,288)"/>
<path d="M0 0 C1.84000111 0.69798766 3.67854635 1.39982513 5.515625 2.10546875 C7.33171714 2.73902695 9.14942303 3.36797916 10.96875 3.9921875 C21.91198389 7.8549724 32.29811926 12.62932257 42.515625 18.10546875 C43.22783203 18.47897461 43.94003906 18.85248047 44.67382812 19.23730469 C53.47533975 23.86137095 61.947258 28.84131628 70.140625 34.48046875 C70.88175537 34.98030273 71.62288574 35.48013672 72.38647461 35.99511719 C73.39786499 36.71103027 73.39786499 36.71103027 74.4296875 37.44140625 C75.0273291 37.8595459 75.6249707 38.27768555 76.24072266 38.70849609 C77.515625 40.10546875 77.515625 40.10546875 77.515625 44.10546875 C75.3828125 45.89453125 75.3828125 45.89453125 72.390625 47.73046875 C71.28976562 48.42914063 70.18890625 49.1278125 69.0546875 49.84765625 C68.17925293 50.40018066 68.17925293 50.40018066 67.28613281 50.96386719 C64.38108836 52.83700396 61.57245106 54.83915127 58.765625 56.85546875 C58.1873999 57.27078857 57.6091748 57.6861084 57.01342773 58.11401367 C46.22419707 65.89961666 35.62585009 73.81946944 25.546875 82.51171875 C22.64193949 84.99738522 19.68517315 87.40077628 16.703125 89.79296875 C12.68411905 93.06059532 9.00725442 96.5002502 5.40234375 100.21484375 C3.55077502 102.07024596 1.63308827 103.77832448 -0.359375 105.48046875 C-7.21705618 111.39505036 -13.5913058 117.85856555 -19.46484375 124.75 C-21.07138302 126.62377791 -22.69958563 128.46786987 -24.34765625 130.3046875 C-47.76654368 156.58067204 -68.57843096 187.75397033 -77.484375 222.10546875 C-77.81179688 223.26820313 -78.13921875 224.4309375 -78.4765625 225.62890625 C-79.59592572 229.76794698 -80.57120064 233.91692749 -81.484375 238.10546875 C-81.67064453 238.93272461 -81.85691406 239.75998047 -82.04882812 240.61230469 C-85.41702876 256.23733036 -85.88432343 271.68582992 -85.921875 287.60546875 C-85.92795776 288.58420959 -85.93404053 289.56295044 -85.94030762 290.5713501 C-86.01051341 307.84595647 -84.05658841 323.97200233 -79.296875 340.60546875 C-78.99644287 341.6622583 -78.69601074 342.71904785 -78.38647461 343.80786133 C-71.36667006 367.65208038 -58.81848469 389.55689573 -41.78125 407.65234375 C-39.78118586 409.78846667 -37.91041338 411.97647472 -36.046875 414.23046875 C-32.54078075 418.26206658 -28.53073913 421.51536304 -24.3515625 424.828125 C-22.5189233 426.28374987 -20.70875211 427.7684247 -18.9296875 429.2890625 C-8.58899212 438.10536966 2.9486977 445.20012259 14.765625 451.85546875 C15.42328857 452.22921631 16.08095215 452.60296387 16.75854492 452.98803711 C19.84397515 454.7161701 22.86872233 456.25717832 26.125 457.65625 C35.92606909 462.0260815 38.61552086 467.74912666 42.63037109 477.15332031 C45.33580404 483.11929987 49.13866425 488.68369828 53.515625 493.54296875 C55.515625 496.10546875 55.515625 496.10546875 55.29541016 498.08105469 C53.99575249 501.45511897 51.3658039 503.79638548 48.890625 506.35546875 C47.85560143 507.44289857 46.82176042 508.53145509 45.7890625 509.62109375 C45.25410156 510.18368896 44.71914063 510.74628418 44.16796875 511.32592773 C42.45478147 513.17099601 40.80734343 515.06126916 39.1640625 516.96875 C35.21417106 521.51172478 31.02354844 525.78957743 26.765625 530.04296875 C25.97067627 530.83711182 25.17572754 531.63125488 24.35668945 532.44946289 C19.47608787 537.27941626 14.55472838 541.82071467 9.13671875 546.04296875 C7.19990011 547.56702276 5.3392846 549.10843749 3.48828125 550.73046875 C-7.23108706 560.11607563 -18.76834791 567.69603255 -31.109375 574.79296875 C-31.86758545 575.23970947 -32.6257959 575.6864502 -33.40698242 576.14672852 C-38.65342558 579.08532452 -38.65342558 579.08532452 -42.0625 579.16796875 C-45.53038005 577.64657621 -48.54121365 575.60771287 -51.609375 573.41796875 C-52.29878174 572.93392578 -52.98818848 572.44988281 -53.69848633 571.95117188 C-55.96927911 570.34796126 -58.22800268 568.72890431 -60.484375 567.10546875 C-61.27344238 566.54005371 -62.06250977 565.97463867 -62.87548828 565.39208984 C-72.48189628 558.48561049 -81.80211183 551.39460405 -90.71142578 543.60742188 C-92.08090784 542.44726577 -93.47487643 541.31597668 -94.87841797 540.19726562 C-101.6933904 534.75701867 -107.94235325 528.95908303 -114.07373047 522.77685547 C-115.60817716 521.23167497 -117.15305502 519.69750866 -118.69921875 518.1640625 C-125.07108037 511.80109605 -130.8879402 505.17133504 -136.484375 498.10546875 C-137.52010305 496.85010606 -138.55876208 495.59715029 -139.6015625 494.34765625 C-150.87329981 480.66182712 -160.2224305 465.77684666 -168.484375 450.10546875 C-169.02892334 449.08356445 -169.02892334 449.08356445 -169.58447266 448.04101562 C-181.53428709 425.29050875 -188.66085453 400.42694205 -192.484375 375.10546875 C-192.67700928 373.92525146 -192.67700928 373.92525146 -192.87353516 372.72119141 C-196.82609246 347.92787738 -195.79450204 320.74870497 -191.484375 296.10546875 C-191.31808594 295.12175293 -191.15179688 294.13803711 -190.98046875 293.12451172 C-181.27759111 236.92867873 -157.30275445 184.34019714 -127.484375 136.10546875 C-126.87174805 135.11015137 -126.25912109 134.11483398 -125.62792969 133.08935547 C-118.25687187 121.16066628 -110.49108405 109.61075291 -102.140625 98.34716797 C-100.41897172 96.0169468 -98.71585942 93.67401205 -97.015625 91.328125 C-89.93078642 81.58242473 -82.59284624 72.10857802 -74.90820312 62.82910156 C-72.89597027 60.3931681 -70.9112975 57.935044 -68.921875 55.48046875 C-60.24655297 44.90544117 -51.26126481 34.6598695 -41.92822266 24.66259766 C-40.53281424 23.15770843 -39.15231529 21.64075034 -37.77734375 20.1171875 C-35.9946866 18.14660749 -34.1883348 16.19721332 -32.359375 14.26953125 C-30.20780334 11.97718872 -28.3105697 9.57874889 -26.421875 7.06640625 C-18.15497423 -3.33340712 -12.43713607 -4.29818519 0 0 Z " fill="#3C883F" transform="translate(416.484375,291.89453125)"/>
<path d="M0 0 C1.6111972 0.00140488 1.6111972 0.00140488 3.25494385 0.00283813 C18.478509 0.03165398 33.51283175 0.18488528 48.625 2.1875 C49.88280273 2.34879395 51.14060547 2.51008789 52.43652344 2.67626953 C76.90838218 5.85064109 101.56398666 9.72221281 125.08789062 17.36376953 C127.016319 17.98987782 128.94789205 18.60631001 130.88085938 19.21826172 C147.90144953 24.61665148 164.45029714 30.56269853 180.625 38.1875 C181.53121094 38.61111816 182.43742187 39.03473633 183.37109375 39.47119141 C212.57419103 53.23910553 239.32106955 70.98611219 263.0703125 92.8515625 C265.24442099 94.83950879 267.44922776 96.77283338 269.6875 98.6875 C277.24582638 105.27005883 284.20804975 112.49459247 290.625 120.1875 C291.30320801 120.99501709 291.30320801 120.99501709 291.99511719 121.81884766 C332.11011213 169.73896461 355.55426748 228.47112523 368.625 289.1875 C368.82689941 290.12045898 369.02879883 291.05341797 369.23681641 292.01464844 C372.1725887 305.82170225 374.38574226 319.70980113 376.3125 333.6875 C376.4664624 334.78215576 376.4664624 334.78215576 376.62353516 335.89892578 C379.91021231 359.46848942 381.00947429 383.00149756 380.94305801 406.78660583 C380.93739811 408.84964069 380.93458912 410.91266725 380.93197632 412.97570801 C380.79136835 489.52028331 380.79136835 489.52028331 370.625 523.1875 C359.28300616 520.03000575 348.30390267 516.37350456 337.375 512 C336.66964111 511.72047485 335.96428223 511.44094971 335.23754883 511.1529541 C302.67048348 498.23298348 302.67048348 498.23298348 298.625 494.1875 C298.51827082 492.81743527 298.47880636 491.44203838 298.46728516 490.06787109 C298.45687698 489.18579987 298.44646881 488.30372864 298.43574524 487.39492798 C298.42501228 485.94260269 298.42501228 485.94260269 298.4140625 484.4609375 C298.38855264 482.39159185 298.36223369 480.32225606 298.33520508 478.25292969 C298.32196198 477.1612146 298.30871887 476.06949951 298.29507446 474.94470215 C297.03787312 380.6094889 273.68682721 285.25037385 161.86572266 136.33056641 C157.66728294 132.31510511 153.23015252 128.7283506 148.625 125.1875 C147.62082031 124.34316406 146.61664062 123.49882812 145.58203125 122.62890625 C97.15247369 81.99965717 34.01794148 54.99044342 -27.89697266 43.65673828 C-29.57801498 43.33841677 -31.25489627 42.99744779 -32.92724609 42.63623047 C-78.21788409 32.8679853 -127.84635942 39.9293381 -173.375 45.1875 C-144.0499754 13.89831879 -77.74386192 4.60747425 -37.375 1.1875 C-36.35937988 1.09251221 -35.34375977 0.99752441 -34.29736328 0.8996582 C-22.87965268 -0.06511004 -11.45089856 -0.0128642 0 0 Z " fill="#CF4E21" transform="translate(539.375,51.8125)"/>
<path d="M0 0 C5.15427857 1.67694093 9.28249132 4.74721415 13.6875 7.8125 C14.52474609 8.39 15.36199219 8.9675 16.22460938 9.5625 C22.6222385 13.99421604 28.93376408 18.53933053 35.22509766 23.12011719 C41.40235984 27.60459137 47.68134929 31.92638629 53.99560547 36.21508789 C58.26517019 39.11820134 62.50370427 42.05481404 66.70141602 45.06079102 C79.22842483 54.02637075 92.11445423 62.46933215 104.95014954 70.98336792 C108.98506594 73.65986115 113.01446451 76.34439941 117.03981018 79.03526306 C122.88334023 82.93997046 128.73743201 86.82135824 134.6875 90.5625 C135.46037354 91.04879883 136.23324707 91.53509766 137.02954102 92.03613281 C164.56185181 109.28554875 192.4559998 125.82764672 221.38183594 140.64599609 C223.91568972 141.95639828 226.43284668 143.29364031 228.9453125 144.64453125 C239.35877453 150.23771387 249.93506151 155.23158185 260.75146484 159.99462891 C263.88491797 161.39566691 266.96945295 162.8868025 270.0625 164.375 C286.65253042 172.19276146 303.80425517 178.75334033 321.125 184.75 C321.79595703 184.98395477 322.46691406 185.21790955 323.15820312 185.45895386 C330.13747003 187.88110692 337.06173873 190.09588684 344.26953125 191.75390625 C362.2511433 195.89915187 362.2511433 195.89915187 366.55249023 201.71459961 C367.98197481 204.09425376 369.14834222 206.50483892 370.20117188 209.07226562 C371.02822037 211.06810149 371.96790863 212.96839267 372.953125 214.890625 C381.14375391 231.12255318 385.23872273 248.99573468 380.09765625 266.9296875 C375.13137916 280.82112447 367.39460932 293.06534864 354 300 C319.05886036 315.14527607 277.79164457 302.28104663 244.10009766 289.234375 C217.59436855 278.6805109 191.81702598 266.04976139 167 252 C165.95424805 251.40928711 164.90849609 250.81857422 163.83105469 250.20996094 C150.46713274 242.63825553 137.28880456 234.8449991 124.37792969 226.52441406 C121.86793484 224.91533728 119.34570197 223.32698393 116.8203125 221.7421875 C96.60981028 209.03337613 76.98528084 195.47490776 57.46777344 181.73242188 C54.86129897 179.90262935 52.24789417 178.08309264 49.6328125 176.265625 C48.74247314 175.64582764 47.85213379 175.02603027 46.93481445 174.38745117 C45.25230933 173.2165429 43.56865236 172.04728701 41.88354492 170.88012695 C17.19524757 153.66937356 5.59929566 133.06807023 -1 104 C-1.20044922 103.14519043 -1.40089844 102.29038086 -1.60742188 101.40966797 C-7.38376912 75.88484174 -6.65300144 47.82930308 -3 22 C-2.73179066 19.97412768 -2.46494467 17.94807456 -2.19921875 15.921875 C-1.49488029 10.61038827 -0.75922186 5.30390264 0 0 Z " fill="#5CA2DA" transform="translate(479,610)"/>
<path d="M0 0 C3.29931473 1.43373362 6.13013514 3.46407261 9.05078125 5.53515625 C9.74381348 6.01839355 10.4368457 6.50163086 11.15087891 6.99951172 C13.51766147 8.65115135 15.87833482 10.31126511 18.23828125 11.97265625 C34.3613283 23.30855356 50.66628318 34.30230482 67.23828125 44.97265625 C68.5214624 45.79975098 68.5214624 45.79975098 69.83056641 46.64355469 C82.61016449 54.85770842 95.62691605 62.67071799 108.67724609 70.44555664 C111.2003438 71.95003483 113.71998914 73.46015063 116.23828125 74.97265625 C114.57266205 79.30537455 111.36378792 82.10787981 108.11328125 85.28515625 C107.22987061 86.15889893 107.22987061 86.15889893 106.32861328 87.05029297 C102.75137015 90.5646568 99.08664637 93.92404279 95.26171875 97.16796875 C92.6480776 99.4990541 90.19717261 101.9812189 87.73828125 104.47265625 C83.40007382 108.8564439 78.93450138 112.97760787 74.23828125 116.97265625 C73.26890625 117.83117187 72.29953125 118.6896875 71.30078125 119.57421875 C62.48542203 127.34253292 53.20191474 134.3391484 43.67724609 141.21142578 C41.2609765 142.95626751 38.85236045 144.71121509 36.4453125 146.46875 C28.16640955 152.50131177 19.82436241 158.38243794 11.23828125 163.97265625 C9.8395419 164.89798138 8.44113098 165.82380308 7.04296875 166.75 C-82.14938665 225.58137821 -82.14938665 225.58137821 -134.88671875 225.28515625 C-135.61492828 225.28233643 -136.34313782 225.2795166 -137.09341431 225.27661133 C-148.57913133 225.20996824 -159.55956503 224.63389544 -170.76171875 221.97265625 C-172.36950195 221.60140625 -172.36950195 221.60140625 -174.00976562 221.22265625 C-207.83287258 213.25125297 -241.2244693 201.37993891 -266.76171875 176.97265625 C-267.39722656 176.4003125 -268.03273438 175.82796875 -268.6875 175.23828125 C-279.46403066 165.20248773 -286.69057123 150.60064386 -287.76171875 135.97265625 C-286.80209229 135.9883667 -285.84246582 136.00407715 -284.85375977 136.02026367 C-256.51246472 136.44170302 -230.34456278 134.27360531 -202.67333984 127.65429688 C-200.25621861 127.08842378 -197.84068373 126.56599551 -195.40625 126.08203125 C-171.64762016 121.14139874 -148.40246497 111.75461838 -126.76171875 100.97265625 C-125.85389648 100.52422363 -124.94607422 100.07579102 -124.01074219 99.61376953 C-99.74185838 87.54019549 -77.41877296 72.52361326 -56.76171875 54.97265625 C-55.60945464 54.00641544 -54.45710537 53.04027617 -53.3046875 52.07421875 C-47.13582219 46.87305091 -41.20584664 41.58261019 -35.578125 35.7890625 C-33.76171875 33.97265625 -33.76171875 33.97265625 -31.13671875 31.91015625 C-28.27045814 29.57189102 -26.03604727 26.91088063 -23.640625 24.1015625 C-21.80258645 22.01896165 -19.88175528 20.09173238 -17.88671875 18.16015625 C-13.82643882 14.17110931 -10.286754 9.83858544 -6.7421875 5.390625 C-6.08863281 4.59269531 -5.43507813 3.79476562 -4.76171875 2.97265625 C-4.26285156 2.35003906 -3.76398438 1.72742188 -3.25 1.0859375 C-1.76171875 -0.02734375 -1.76171875 -0.02734375 0 0 Z " fill="#A07A47" transform="translate(502.76171875,814.02734375)"/>
<path d="M0 0 C3.21136934 0.79069108 5.79022884 1.85050101 8.73681641 3.34106445 C9.79860107 3.86869385 10.86038574 4.39632324 11.9543457 4.93994141 C13.08525635 5.50801514 14.21616699 6.07608887 15.38134766 6.66137695 C29.05965871 13.40693562 42.99279693 19.22062038 57.19384766 24.78637695 C53.51252658 28.59892711 49.65372973 31.99059067 45.50634766 35.28637695 C44.85698242 35.80264648 44.20761719 36.31891602 43.53857422 36.85083008 C24.9033243 51.5363613 5.22120752 64.37733485 -15.66357422 75.62475586 C-17.69596129 76.72663572 -19.712931 77.85248527 -21.72802734 78.9855957 C-59.17018045 99.77797011 -115.44654981 122.7134704 -158.80615234 120.78637695 C-155.0550804 116.44466661 -150.29443552 113.88536603 -145.43115234 110.97387695 C-133.94038554 103.97701398 -122.84678804 96.46883687 -111.80615234 88.78637695 C-111.02723633 88.2459375 -110.24832031 87.70549805 -109.44580078 87.14868164 C-99.05469672 79.92697751 -88.87745598 72.44665536 -78.80615234 64.78637695 C-78.24476563 64.36146973 -77.68337891 63.9365625 -77.10498047 63.4987793 C-63.86950642 53.47684021 -51.03909566 42.94968643 -38.42138672 32.16333008 C-36.75780691 30.7451635 -35.08719358 29.33562379 -33.41552734 27.92700195 C-25.7727608 21.46326999 -18.37301553 14.77477487 -11.08349609 7.9152832 C-10.23827393 7.12661865 -10.23827393 7.12661865 -9.37597656 6.32202148 C-7.91936156 4.89712127 -6.57682432 3.35810424 -5.24755859 1.8137207 C-2.80615234 -0.21362305 -2.80615234 -0.21362305 0 0 Z " fill="#5F3C17" transform="translate(658.80615234375,911.213623046875)"/>
<path d="M0 0 C18.50316506 8.651368 33.61486257 29.40162751 41 48 C44.19326172 56.83516807 46.55151482 65.58181129 47 75 C44.88123967 72.32585849 43.29901489 69.75926005 41.90625 66.6484375 C41.52162598 65.80635742 41.13700195 64.96427734 40.74072266 64.09667969 C40.33128418 63.19852539 39.9218457 62.30037109 39.5 61.375 C30.00507343 41.05326348 17.34494148 22.64183096 3.30078125 5.20019531 C0 1.09380796 0 1.09380796 0 0 Z " fill="#0B0B0B" transform="translate(863,153)"/>
</svg>
