<?xml version="1.0" encoding="UTF-8"?>
<svg version="1.1" xmlns="http://www.w3.org/2000/svg" width="976" height="1036">
<path d="M0 0 C1.95213386 1.0027381 3.91247278 1.98800536 5.87353516 2.97314453 C32.98959496 16.77249062 58.17322114 34.41013338 80.63525391 54.90673828 C82.60430981 56.68953214 84.60665593 58.41167275 86.63525391 60.12548828 C96.0890442 68.38794728 105.03541489 77.4236679 112.79541016 87.29345703 C114.72277146 89.71752487 116.72762017 92.04876113 118.77148438 94.37451172 C130.4106954 107.71813997 140.19667126 122.63677511 148.94775391 138.00048828 C149.33350586 138.66661133 149.71925781 139.33273437 150.11669922 140.01904297 C183.44476232 197.63932262 206.39595772 270.56832489 206.04541016 337.67236328 C206.04399521 338.72079407 206.04258026 339.76922485 206.04112244 340.84942627 C206.03559067 344.14981114 206.02305163 347.45012443 206.01025391 350.75048828 C206.00523006 353.00829979 206.00066872 355.26611238 205.99658203 357.52392578 C205.98564373 363.0161371 205.9689754 368.50830757 205.94775391 374.00048828 C202.38443313 373.42149766 199.62055676 372.4954805 196.45556641 370.77001953 C195.59729248 370.30394287 194.73901855 369.83786621 193.85473633 369.35766602 C192.93668213 368.84792236 192.01862793 368.33817871 191.07275391 367.81298828 C189.62703003 367.01646851 189.62703003 367.01646851 188.15209961 366.20385742 C171.32453259 356.8455378 155.01947427 346.59564444 138.94775391 336.00048828 C138.35188477 335.61006348 137.75601563 335.21963867 137.14208984 334.81738281 C111.7508666 318.17327438 87.33677555 300.22333541 63.24804688 281.76171875 C61.26686214 280.24481505 59.28228317 278.73258249 57.29541016 277.22314453 C45.74587756 268.41466293 34.51167181 259.2242275 23.45288086 249.80883789 C19.59527507 246.53014265 15.67595983 243.34418171 11.70556641 240.20361328 C9.60114934 238.52246424 7.51606739 236.82535809 5.43994141 235.10986328 C-5.48538316 226.10267257 -16.81443888 217.72595536 -28.25878906 209.39404297 C-40.10065562 200.74777281 -50.66907525 191.47064491 -60.99365234 181.03564453 C-64.20911037 177.85679513 -67.61709097 174.93745902 -71.05224609 172.00048828 C-72.01259766 171.15099609 -72.97294922 170.30150391 -73.96240234 169.42626953 C-92.76955224 152.87812636 -113.333059 138.45708088 -135.05224609 126.00048828 C-135.68259766 125.63600586 -136.31294922 125.27152344 -136.96240234 124.89599609 C-173.71976018 103.86261911 -215.45719506 93.50998984 -257.61474609 93.68798828 C-258.53766449 93.69014343 -259.46058289 93.69229858 -260.41146851 93.69451904 C-274.822546 93.74838175 -288.85321048 94.36459848 -303.05224609 97.00048828 C-304.18339844 97.20448242 -305.31455078 97.40847656 -306.47998047 97.61865234 C-323.01449109 100.657499 -339.1448151 104.54991362 -355.05224609 110.00048828 C-355.91688477 110.29648926 -356.78152344 110.59249023 -357.67236328 110.89746094 C-400.08402088 125.69278288 -437.84001662 150.23669134 -472.05224609 179.00048828 C-472.57318848 179.43651367 -473.09413086 179.87253906 -473.63085938 180.32177734 C-484.98873479 189.8490188 -495.92783211 199.78116782 -506.34130859 210.33642578 C-507.24606934 211.25230469 -508.15083008 212.16818359 -509.08300781 213.11181641 C-510.8758882 214.93399327 -512.66156662 216.76328842 -514.43945312 218.60009766 C-515.66317627 219.84629883 -515.66317627 219.84629883 -516.91162109 221.11767578 C-517.63833008 221.86645996 -518.36503906 222.61524414 -519.11376953 223.38671875 C-521.05224609 225.00048828 -521.05224609 225.00048828 -524.05224609 225.00048828 C-535.50728059 199.16107841 -533.04814666 173.47977221 -523.0390625 147.43701172 C-512.73945302 122.00650638 -493.88674315 101.45226257 -473.05224609 84.00048828 C-471.49449488 82.65423331 -469.93680879 81.30790263 -468.37988281 79.96069336 C-437.58309522 53.39367203 -404.72216582 29.63764901 -369.05224609 10.00048828 C-368.0598291 9.45344238 -367.06741211 8.90639648 -366.04492188 8.34277344 C-274.3884693 -41.71699175 -166.36419813 -57.59017042 0 0 Z " fill="#FEFEFE" transform="translate(613.05224609375,130.99951171875)"/>
<path d="M0 0 C1.25167969 -0.00257813 2.50335938 -0.00515625 3.79296875 -0.0078125 C6.8125 0.125 6.8125 0.125 8.8125 1.125 C8.23519061 4.26403723 7.42020569 5.8867123 5.14794922 8.11425781 C4.31105057 8.94597504 4.31105057 8.94597504 3.45724487 9.79449463 C2.85002594 10.38309265 2.24280701 10.97169067 1.6171875 11.578125 C0.99151886 12.19717712 0.36585022 12.81622925 -0.27877808 13.45404053 C-2.28304852 15.4349153 -4.29715812 17.40539569 -6.3125 19.375 C-8.94386525 21.95974155 -11.57108303 24.54863959 -14.1953125 27.140625 C-14.82460159 27.76186752 -15.45389069 28.38311005 -16.10224915 29.0231781 C-20.33894729 33.22699882 -24.36350665 37.54017752 -28.1875 42.125 C-29.19656593 43.28226638 -30.20829317 44.43721759 -31.22265625 45.58984375 C-44.23124658 60.48512736 -56.60518453 75.73856528 -68.35253906 91.65039062 C-70.10386606 94.01221213 -71.87294751 96.3594377 -73.6484375 98.703125 C-86.50100735 115.76028715 -98.38241131 133.70449294 -109.07128906 152.20019531 C-110.33426436 154.37808185 -111.61703415 156.54384522 -112.8984375 158.7109375 C-138.96382718 203.15192756 -158.31386605 251.20447894 -167.4375 302 C-167.58888428 302.84191895 -167.74026855 303.68383789 -167.89624023 304.55126953 C-170.50697079 320.06216729 -171.57308536 335.53625743 -171.5 351.25 C-171.49784485 352.09461792 -171.4956897 352.93923584 -171.49346924 353.80944824 C-171.21840066 421.43179904 -144.60500518 483.13555179 -99.28515625 532.80859375 C-97.48158387 534.80024817 -95.73643904 536.82521857 -94 538.875 C-86.10828225 547.9283491 -77.36439768 556.3882724 -68.1875 564.125 C-66.75664063 565.38957031 -66.75664063 565.38957031 -65.296875 566.6796875 C-55.36788069 575.42177779 -44.85225059 583.30785197 -34.1875 591.125 C-33.35476563 591.73649902 -32.52203125 592.34799805 -31.6640625 592.97802734 C-29.25897335 594.74058972 -26.84962653 596.49708346 -24.4375 598.25 C-23.72368164 598.77005615 -23.00986328 599.2901123 -22.27441406 599.82592773 C-17.69622151 603.1289825 -13.01174453 606.19334371 -8.1875 609.125 C-9.1875 612.125 -9.1875 612.125 -11.12329102 613.2565918 C-11.97076904 613.60890869 -12.81824707 613.96122559 -13.69140625 614.32421875 C-14.64700439 614.72479492 -15.60260254 615.12537109 -16.5871582 615.53808594 C-17.630896 615.95864258 -18.67463379 616.37919922 -19.75 616.8125 C-20.83047607 617.25239258 -21.91095215 617.69228516 -23.02416992 618.14550781 C-42.99168601 626.15626269 -63.04162658 632.11317327 -84.1875 636.125 C-85.12770996 636.30434082 -86.06791992 636.48368164 -87.03662109 636.66845703 C-131.05784379 644.7035071 -175.9142039 636.90100417 -213.25 612.08984375 C-215.94864954 610.16168932 -218.57606946 608.16942268 -221.1875 606.125 C-222.03054687 605.485625 -222.87359375 604.84625 -223.7421875 604.1875 C-236.69176873 594.04302093 -248.20800165 582.05454276 -257.94482422 568.81201172 C-259.16614961 567.15398451 -260.41127916 565.51623502 -261.66015625 563.87890625 C-303.61336217 508.01056922 -324.386034 429.62791675 -324.4375 360.25 C-324.43817474 359.42340881 -324.43884949 358.59681763 -324.43954468 357.74517822 C-324.31441601 260.2032908 -285.5647933 171.6495877 -217.3125 103.125 C-213.10791265 98.93733891 -208.90182059 94.78513314 -204.359375 90.9609375 C-202.57178632 89.44984635 -200.82193171 87.91230053 -199.078125 86.3515625 C-145.15788453 38.3603884 -73.73382432 -0.15539268 0 0 Z " fill="#FEFEFE" transform="translate(344.1875,248.875)"/>
<path d="M0 0 C3.80935581 1.36048422 6.75918893 3.08915274 10 5.5 C10.9590625 6.21285156 11.918125 6.92570312 12.90625 7.66015625 C13.9271875 8.43230469 14.948125 9.20445312 16 10 C16.52722656 10.39815918 17.05445313 10.79631836 17.59765625 11.20654297 C25.2083499 16.96728789 32.64049235 22.92087453 40 29 C41.79133862 30.45873627 43.58300905 31.91706516 45.375 33.375 C48.7993552 36.17058941 52.18207202 39.00632992 55.53515625 41.88696289 C61.71415772 47.18446983 68.07549119 52.18411555 74.56542969 57.0949707 C79.23457373 60.63231173 83.82541465 64.24809941 88.375 67.9375 C96.25008504 74.29749858 104.401046 80.26302399 112.578125 86.2265625 C114.93536645 87.95267156 117.28196087 89.69217493 119.625 91.4375 C186.09874965 140.90044468 257.6592521 183.76562486 336.4375 210.3125 C337.07396454 210.52922363 337.71042908 210.74594727 338.36618042 210.96923828 C344.44920594 213.03396416 350.43788546 215.00673267 356.76953125 216.140625 C369.03802966 218.33866305 369.03802966 218.33866305 373.01953125 223.234375 C375.93628681 227.55531459 377.96040597 232.22003289 380 237 C380.87914689 238.92886956 381.75939916 240.8572356 382.640625 242.78515625 C390.78002113 261.06778752 396.16209537 278.96530487 396.25 299.0625 C396.2809375 300.79016602 396.2809375 300.79016602 396.3125 302.55273438 C396.36275258 313.75277726 394.5845584 324.22684695 389.3125 334.1875 C388.79248413 335.19574829 388.79248413 335.19574829 388.26196289 336.22436523 C385.15981342 342.05287933 381.45805875 347.12342961 377 352 C376.47148438 352.6084375 375.94296875 353.216875 375.3984375 353.84375 C358.04003225 372.6558148 323.89773342 387.16505882 298.75 388.75 C287.14499159 388.68544804 275.93657814 384.29110482 265.05828857 380.68084717 C262.91102423 379.97056831 260.76078547 379.26991966 258.60986328 378.57080078 C205.56425633 361.2824824 155.26529113 337.95661357 107 310 C106.43285278 309.67217529 105.86570557 309.34435059 105.28137207 309.0065918 C90.41373519 300.41271082 75.64738175 291.70080401 61.20068359 282.41064453 C58.16119991 280.46232672 55.10661659 278.53834769 52.05175781 276.61425781 C48.85637063 274.60146746 45.66473474 272.58276875 42.47314453 270.56396484 C40.81306932 269.51416802 39.1525818 268.46502293 37.49169922 267.41650391 C22.9360311 258.22301167 8.52336226 248.8212281 -5.86502075 239.36936951 C-13.49065525 234.36164216 -21.14077862 229.39170384 -28.79589844 224.42919922 C-30.94028926 223.03871807 -33.0835061 221.64644289 -35.2265625 220.25390625 C-38.7145719 217.98907684 -42.20780477 215.7324813 -45.70410156 213.48046875 C-47.31662894 212.44065952 -48.92784293 211.39881204 -50.53808594 210.35546875 C-60.78456151 203.72165263 -71.08987059 197.24867455 -81.6875 191.1875 C-82.57856445 190.67775635 -83.46962891 190.1680127 -84.38769531 189.64282227 C-89.04636434 186.99988257 -89.04636434 186.99988257 -94 185 C-95.15445612 158.44750934 -87.27489296 134.74079575 -76 111 C-75.62359375 110.20335937 -75.2471875 109.40671875 -74.859375 108.5859375 C-59.31050973 75.93332044 -38.53635486 45.56888739 -15.47070312 17.77929688 C-14.08835766 16.10689751 -12.72061368 14.42397354 -11.359375 12.734375 C-10.58078125 11.77015625 -9.8021875 10.8059375 -9 9.8125 C-8.34 8.99394531 -7.68 8.17539062 -7 7.33203125 C-4.78782525 4.75260092 -2.42931329 2.37448504 0 0 Z " fill="#FEFEFE" transform="translate(566,357)"/>
<path d="M0 0 C0.73887451 0.14928955 1.47774902 0.2985791 2.23901367 0.45239258 C24.39309167 5.15790857 45.48313978 13.51537873 65.4375 24.125 C66.15115723 24.49850586 66.86481445 24.87201172 67.60009766 25.25683594 C81.06136338 32.33055291 93.64721047 40.50120467 105.4375 50.125 C105.35522461 51.82836914 105.35522461 51.82836914 104.4375 54.125 C102.2383908 55.87011896 100.11195054 57.37195371 97.75390625 58.87109375 C97.07116135 59.31874588 96.38841644 59.76639801 95.6849823 60.22761536 C94.22179589 61.1856086 92.75526493 62.13850923 91.2857666 63.08679199 C87.4730356 65.54831963 83.6854526 68.04803986 79.89453125 70.54296875 C79.15145721 71.03056671 78.40838318 71.51816467 77.64279175 72.02053833 C69.3768506 77.45485459 61.3427085 83.17949504 53.4375 89.125 C52.54345459 89.79595703 52.54345459 89.79595703 51.63134766 90.48046875 C44.0784692 96.17067931 36.6922791 102.05952895 29.4375 108.125 C28.65536133 108.77758789 28.65536133 108.77758789 27.85742188 109.44335938 C12.49330272 122.30423361 -2.5386586 135.86998258 -15.5625 151.125 C-16.78066406 152.50945312 -16.78066406 152.50945312 -18.0234375 153.921875 C-33.33553978 171.46169972 -45.73229513 191.04646235 -55.5625 212.125 C-56.08585938 213.23359375 -56.60921875 214.3421875 -57.1484375 215.484375 C-65.12661977 233.80464539 -69.12570102 254.3576867 -71.5625 274.125 C-71.75779297 275.65253906 -71.75779297 275.65253906 -71.95703125 277.2109375 C-76.69066437 322.27512477 -64.23838222 367.16007757 -35.90234375 402.46875 C-25.70749202 414.9209278 -14.45111285 425.51381803 -1.5625 435.125 C-1.00336914 435.55022949 -0.44423828 435.97545898 0.13183594 436.41357422 C11.35317023 444.93274833 23.34615192 452.12129323 36.30078125 457.6953125 C37.28949219 458.12328125 38.27820313 458.55125 39.296875 458.9921875 C41.21785046 459.81038075 43.14865199 460.60599969 45.08984375 461.375 C51.52728316 464.09636652 54.42558185 466.85466023 57.4375 473.125 C58.1007105 474.37415064 58.76474689 475.62286321 59.4296875 476.87109375 C60.05755067 478.10143036 60.68515158 479.33190084 61.3125 480.5625 C64.94977804 487.52268088 69.10159907 493.53842444 74.46484375 499.3046875 C75.44130859 500.36042969 75.44130859 500.36042969 76.4375 501.4375 C77.035625 502.05238281 77.63375 502.66726563 78.25 503.30078125 C79.4375 505.125 79.4375 505.125 79.45703125 506.984375 C77.93028692 510.18995313 75.56388723 512.53588574 73.125 515.0625 C72.02707133 516.22370082 70.92942295 517.38516671 69.83203125 518.546875 C69.26822754 519.13919922 68.70442383 519.73152344 68.12353516 520.34179688 C65.99283772 522.59528863 63.90157875 524.88312753 61.81079102 527.17358398 C54.47361594 535.19940381 47.01093065 543.10870853 38.7265625 550.171875 C36.95464088 551.68375351 35.20336614 553.21984841 33.4609375 554.765625 C16.03162271 570.14957128 -3.01795976 582.62811365 -23.875 592.875 C-24.56215088 593.22280518 -25.24930176 593.57061035 -25.95727539 593.92895508 C-30.35896681 596.00942711 -32.88591707 596.29203883 -37.5625 595.125 C-40.28466797 593.7331543 -40.28466797 593.7331543 -43.0546875 591.94921875 C-44.08182861 591.29187744 -45.10896973 590.63453613 -46.16723633 589.95727539 C-47.24642334 589.24949951 -48.32561035 588.54172363 -49.4375 587.8125 C-50.56330496 587.08246175 -51.68920085 586.35256372 -52.81518555 585.62280273 C-61.10134174 580.22069777 -69.08749136 574.50596394 -76.88378906 568.42285156 C-79.47115082 566.42250033 -82.11498099 564.49941007 -84.75 562.5625 C-94.83467908 554.99556983 -104.26398532 546.62888898 -113.5625 538.125 C-114.64960345 537.14307843 -115.73685132 536.16131673 -116.82421875 535.1796875 C-122.08790793 530.40443616 -127.23093487 525.67287815 -131.7890625 520.203125 C-133.95351392 517.66680747 -136.26278324 515.28936539 -138.5625 512.875 C-155.79898856 494.29662246 -170.11032583 472.19016078 -180.5625 449.125 C-180.89588379 448.39104004 -181.22926758 447.65708008 -181.57275391 446.90087891 C-188.54575445 431.3613296 -193.76520387 415.66290464 -197.3125 399 C-197.51125732 398.0716333 -197.71001465 397.1432666 -197.91479492 396.18676758 C-201.01292297 380.85017057 -201.94286161 365.73298953 -201.875 350.125 C-201.87284485 349.22770172 -201.8706897 348.33040344 -201.86846924 347.40591431 C-201.81241447 332.80494408 -201.16652711 318.52318764 -198.5625 304.125 C-198.36382324 303.02510742 -198.16514648 301.92521484 -197.96044922 300.79199219 C-191.51528426 266.3115666 -179.68271415 233.69251089 -164.5625 202.125 C-164.13243652 201.21572754 -163.70237305 200.30645508 -163.25927734 199.36962891 C-150.67577683 172.86211751 -135.30819302 146.4188125 -117.671875 122.94140625 C-115.94393569 120.63428728 -114.25376789 118.30980476 -112.578125 115.96484375 C-105.80568135 106.48947396 -98.87321067 97.19188295 -91.5625 88.125 C-90.80453125 87.18398438 -90.0465625 86.24296875 -89.265625 85.2734375 C-83.93325374 78.71197358 -78.48183326 72.25258081 -72.99951172 65.81640625 C-71.56850998 64.13207393 -70.14512965 62.4415372 -68.72265625 60.75 C-57.16903551 47.06298156 -44.76561872 34.24024313 -32.125 21.5625 C-31.35343567 20.78691742 -31.35343567 20.78691742 -30.56628418 19.9956665 C-25.27280805 14.68126002 -19.98373592 9.38460973 -14.23974609 4.55053711 C-12.78009108 3.30993658 -11.39917312 1.97785541 -10.03515625 0.6328125 C-6.52742741 -1.50618171 -3.81710732 -0.84859181 0 0 Z " fill="#FEFEFE" transform="translate(397.5625,250.875)"/>
<path d="M0 0 C1.19691467 -0.00067474 2.39382935 -0.00134949 3.62701416 -0.00204468 C23.32089687 0.0155324 42.65211615 0.72159873 62.1875 3.25 C63.4962207 3.41628906 64.80494141 3.58257813 66.15332031 3.75390625 C129.73132578 12.01323776 194.48354387 33.08601425 247.1875 70.25 C247.72358887 70.62302246 248.25967773 70.99604492 248.81201172 71.38037109 C261.04390216 79.89359971 272.82773913 88.85087525 283.75390625 99 C285.79754149 100.88946051 287.87554318 102.70341918 290 104.5 C299.0119588 112.33891458 307.58883519 121.03661892 315.1875 130.25 C315.62320313 130.7665918 316.05890625 131.28318359 316.5078125 131.81542969 C330.44851197 148.35632507 342.48026237 165.8266576 352.85302734 184.81152344 C354.07979714 187.053195 355.32799157 189.2813273 356.58203125 191.5078125 C382.98641626 239.05397054 396.09163545 294.6021634 402.93035889 348.23699951 C403.17752072 350.17187829 403.43258899 352.10574209 403.68798828 354.03955078 C409.14312458 397.31395669 408.66696481 444.0098482 403.1875 487.25 C403.04607574 488.3864093 403.04607574 488.3864093 402.90179443 489.54577637 C400.82245531 506.21192368 398.40618661 522.76390932 395.1875 539.25 C390.55296436 538.73865407 386.26797972 538.15274568 381.81640625 536.71875 C380.84316406 536.40768311 379.86992188 536.09661621 378.8671875 535.77612305 C377.83851563 535.43750244 376.80984375 535.09888184 375.75 534.75 C374.65816406 534.39397705 373.56632813 534.0379541 372.44140625 533.67114258 C352.73388621 527.18907481 333.60595787 519.9527278 314.70605469 511.38378906 C311.55043341 509.96320888 308.37467431 508.59807653 305.1875 507.25 C305.16768066 506.38238037 305.14786133 505.51476074 305.12744141 504.62084961 C303.27599233 426.72189687 293.22049499 349.28374408 259.1875 278.25 C258.82317871 277.48655273 258.45885742 276.72310547 258.08349609 275.93652344 C256.17405732 271.96711293 254.20050262 268.03630603 252.16455078 264.13037109 C251.1473889 262.17280468 250.14967549 260.20601535 249.15234375 258.23828125 C236.96329987 234.43514839 221.85788022 212.59533097 204.72998047 192.10107422 C203.28775216 190.37030894 201.86335067 188.62633741 200.44140625 186.87890625 C194.23147361 179.34414357 187.50472231 172.36264301 180.625 165.4375 C179.76261719 164.56585205 178.90023438 163.6942041 178.01171875 162.79614258 C172.7951964 157.60481366 167.38714586 152.82464413 161.64526367 148.22192383 C159.69401707 146.65639102 157.78433445 145.06880966 155.90234375 143.421875 C140.8525207 130.29825996 124.34647283 119.40824571 107.1875 109.25 C106.4459668 108.81091309 105.70443359 108.37182617 104.94042969 107.91943359 C57.28720652 79.99643154 2.98970439 61.92089204 -51.8125 55.25 C-53.25230225 55.07428467 -53.25230225 55.07428467 -54.72119141 54.89501953 C-103.57056341 49.28388668 -154.10486776 54.41326588 -202.28100586 63.03100586 C-206.85383423 63.83678165 -211.14559434 64.46778893 -215.8125 64.25 C-212.02547992 60.18676732 -208.05010179 57.1684211 -203.375 54.1875 C-202.27442261 53.48294678 -202.27442261 53.48294678 -201.15161133 52.76416016 C-157.40764451 25.19722466 -107.62778006 9.09875816 -56.4375 2.9375 C-55.42346603 2.81539658 -55.42346603 2.81539658 -54.38894653 2.69082642 C-36.22672408 0.54125237 -18.26973075 0.00927685 0 0 Z " fill="#FEFEFE" transform="translate(539.8125,12.75)"/>
<path d="M0 0 C3.39057356 0.55530827 5.96855219 1.32706227 8.9140625 3.08984375 C9.66042969 3.53465088 10.40679687 3.97945801 11.17578125 4.43774414 C11.98402344 4.93266357 12.79226563 5.42758301 13.625 5.9375 C14.49253906 6.46400146 15.36007812 6.99050293 16.25390625 7.53295898 C28.40530714 14.99017827 40.19758804 23.00707073 52 31 C52.607229 31.41111023 53.21445801 31.82222046 53.84008789 32.24578857 C59.9294188 36.36931504 66.01421178 40.49951232 72.09701538 44.63265991 C85.95133561 54.04622943 99.92249493 63.21700351 114.08642578 72.16015625 C115.99730758 73.36682671 117.90717507 74.57510526 119.81591797 75.78515625 C194.38874218 123.03408229 272.49190492 165.26048348 356.6875 192.5625 C357.43274933 192.80453156 358.17799866 193.04656311 358.9458313 193.29592896 C365.56765542 195.43642525 372.18241357 197.54842538 378.92016602 199.29711914 C380.14235588 199.61814857 380.14235588 199.61814857 381.38923645 199.94566345 C382.94947394 200.35045879 384.51302631 200.74276601 386.0801239 201.12013245 C391.96176915 202.64474625 394.9932146 204.90124641 398.2734375 209.94140625 C398.84320312 210.95074219 399.41296875 211.96007812 400 213 C400.76082757 214.23963005 401.52399445 215.47782632 402.2890625 216.71484375 C407.35960731 225.12073066 411.21627034 233.5610511 414 243 C414.24492188 243.82371094 414.48984375 244.64742187 414.7421875 245.49609375 C419.13892678 263.35408274 415.29885607 281.45375713 406 297 C400.76830675 304.65826712 394.96584401 310.27260659 387 315 C386.25492188 315.46019531 385.50984375 315.92039062 384.7421875 316.39453125 C357.45642203 331.70230815 320.30703607 324.82125084 291.83886719 317.14794922 C264.60546591 309.44974105 238.62551319 298.89202287 213 287 C212.02272949 286.55124512 211.04545898 286.10249023 210.03857422 285.64013672 C197.30830324 279.78938972 184.99718747 273.32308681 172.75292969 266.51904297 C170.04602801 265.02539786 167.32696382 263.55723371 164.6015625 262.09765625 C151.59737382 255.12108952 138.91809723 247.68241378 126.31103516 240.01367188 C122.9122925 237.94665894 119.5093229 235.88670202 116.10546875 233.828125 C110.80503018 230.62115442 105.51104514 227.40372676 100.22129822 224.17915344 C96.26190052 221.76607749 92.29589626 219.36413839 88.328125 216.96484375 C10.45047677 169.68903568 10.45047677 169.68903568 -1.22827148 123.89550781 C-11.06926257 82.6889117 -6.55535183 41.31370017 0 0 Z " fill="#FEFEFE" transform="translate(468,567)"/>
<path d="M0 0 C8.19512461 4.2790418 15.92481528 9.07870706 23.625 14.1875 C24.77774389 14.94736306 25.93082441 15.70671565 27.08422852 16.46557617 C29.35845176 17.96214979 31.63159923 19.46033162 33.90380859 20.95996094 C67.44912312 43.06251954 101.7294305 63.76880078 137 83 C131.62684647 94.08561892 120.41552915 103.22741595 111.1484375 111.1328125 C108.96810437 113.0277202 106.84643522 114.97909863 104.72973633 116.94458008 C98.68325115 122.55267833 92.47158934 127.88403632 86 133 C85.35820801 133.50901855 84.71641602 134.01803711 84.05517578 134.54248047 C28.06884341 178.83751128 -41.19637804 229.73421586 -113 241 C-114.17949219 241.19078125 -115.35898437 241.3815625 -116.57421875 241.578125 C-160.90309026 246.77112288 -208.28132288 235.40527426 -248 216 C-248.65790527 215.68063477 -249.31581055 215.36126953 -249.99365234 215.03222656 C-275.32980773 202.56974813 -295.67113439 184.92409045 -305.7734375 157.93359375 C-307.76712359 151.24463246 -307.6568518 143.93520565 -308 137 C-307.03707031 137.144375 -306.07414063 137.28875 -305.08203125 137.4375 C-228.55725153 147.91588086 -145.52940673 118.58324726 -83 76 C-82.35095703 75.55946289 -81.70191406 75.11892578 -81.03320312 74.66503906 C-71.260413 67.984706 -62.06232471 60.6083263 -53 53 C-52.50923981 52.59182037 -52.01847961 52.18364075 -51.5128479 51.76309204 C-42.76307055 44.47213067 -34.49946997 36.81742519 -26.4753418 28.73608398 C-24.67784195 26.92778392 -22.86977684 25.13054023 -21.06054688 23.33398438 C-14.90024664 17.1799857 -9.08442761 10.95153388 -3.68286133 4.11157227 C-2 2 -2 2 0 0 Z " fill="#FEFEFE" transform="translate(496,772)"/>
<path d="M0 0 C2.90115979 2.05471896 5.41561412 4.56438633 8 7 C8.48082031 7.4429541 8.96164062 7.8859082 9.45703125 8.34228516 C11.00688507 9.77589994 12.5364484 11.22860542 14.0625 12.6875 C14.56402588 13.15075684 15.06555176 13.61401367 15.58227539 14.09130859 C18.96866522 17.39861329 18.96866522 17.39861329 19.1015625 19.94921875 C17.49495005 22.94025257 15.45369511 25.50848121 13.3125 28.125 C12.3041291 29.38366743 11.29634461 30.64280482 10.2890625 31.90234375 C9.75313477 32.56862793 9.21720703 33.23491211 8.66503906 33.92138672 C-34.20555331 87.44048106 -76.54920227 146.58073573 -79.02978516 217.31918335 C-79.47922429 229.71866179 -80.83066055 241.1354943 -83.74658203 253.23120117 C-88.13924315 271.47982571 -89.47458565 290.27335703 -90 309 C-90.04125 310.12019531 -90.0825 311.24039062 -90.125 312.39453125 C-90.35244907 323.92335621 -89.1591529 335.43132014 -88.24365234 346.91259766 C-87.93399992 350.83630968 -87.65115514 354.76129435 -87.375 358.6875 C-87.30023438 359.74324219 -87.22546875 360.79898437 -87.1484375 361.88671875 C-87.09945312 362.58410156 -87.05046875 363.28148437 -87 364 C-118.89383881 354.72449789 -148.50770605 322.14418947 -164.18530273 294.35644531 C-183.154501 259.53744925 -184.79585916 215.10546135 -174.3125 177.4375 C-166.97580317 152.6476958 -155.50614991 130.64029319 -140 110 C-139.54657227 109.38962891 -139.09314453 108.77925781 -138.62597656 108.15039062 C-131.40617447 98.47828176 -123.40482978 89.65094485 -115 81 C-114.27264648 80.25073242 -113.54529297 79.50146484 -112.79589844 78.72949219 C-97.29118552 62.83042456 -97.29118552 62.83042456 -88.6171875 56.0546875 C-86.16215773 54.12730592 -83.79167267 52.12254731 -81.43017578 50.08227539 C-74.24842848 43.8901048 -66.76553092 38.16607028 -59.12109375 32.55908203 C-56.97975092 30.98511618 -54.84920633 29.397253 -52.71875 27.80859375 C-44.70172466 21.87542261 -36.52328395 16.28354985 -28.0625 11 C-26.80336792 10.20831421 -26.80336792 10.20831421 -25.51879883 9.40063477 C-6.40976087 -2.33753276 -6.40976087 -2.33753276 0 0 Z " fill="#FEFEFE" transform="translate(528,322)"/>
<path d="M0 0 C13.17696329 4.79466808 26.11820678 10.11341957 39.0625 15.5 C43.05283502 17.15757816 47.04381429 18.81359809 51.03515625 20.46875 C51.98411774 20.86247803 52.93307922 21.25620605 53.91079712 21.66186523 C61.58184713 24.83933715 69.27854551 27.94706623 77 31 C77 31.99 77 32.98 77 34 C74.97890511 35.82110649 72.98576327 37.44125749 70.8125 39.0625 C70.16885498 39.55290771 69.52520996 40.04331543 68.86206055 40.54858398 C67.53414992 41.56030211 66.20380851 42.56883744 64.87109375 43.57421875 C63.26929416 44.79479672 61.69421527 46.05030511 60.125 47.3125 C36.48429325 66.2250654 9.93664054 81.3748031 -17 95 C-17.86077148 95.43844238 -18.72154297 95.87688477 -19.60839844 96.32861328 C-71.76740323 122.71266417 -135.1296421 140.49882099 -194 139 C-190.58235157 136.14377785 -187.148269 133.81397629 -183.265625 131.63671875 C-181.58883667 130.68998291 -181.58883667 130.68998291 -179.87817383 129.72412109 C-178.99278427 129.22751984 -178.99278427 129.22751984 -178.08950806 128.72088623 C-174.91546048 126.93779153 -171.75304842 125.13426988 -168.58984375 123.33203125 C-167.945811 122.96529297 -167.30177826 122.59855469 -166.63822937 122.22070312 C-126.86124444 99.54755464 -88.13556575 73.73224946 -52.5625 44.875 C-49.56761584 42.44618186 -46.53383949 40.0721179 -43.48681641 37.70922852 C-37.92451776 33.39146589 -32.59517615 28.93596699 -27.41015625 24.1640625 C-24.92338581 21.93120866 -22.35879004 19.83855098 -19.75 17.75 C-12.85102488 12.17737017 -6.44340444 6.08596011 0 0 Z " fill="#FEFEFE" transform="translate(660,870)"/>
<path d="M0 0 C7.06944438 2.19145495 13.64556564 4.98223249 20.3125 8.1875 C21.32852295 8.67581299 22.3445459 9.16412598 23.39135742 9.66723633 C30.7199251 13.24958259 37.49023531 17.05380517 44 22 C44.85207031 22.64453125 45.70414063 23.2890625 46.58203125 23.953125 C49.10114063 25.91888163 51.55799355 27.93943417 54 30 C55.21623047 31.01320313 55.21623047 31.01320313 56.45703125 32.046875 C77.26047262 50.0000811 90.83845794 75.14700358 93.84765625 102.64697266 C94.20686973 108.19520911 94.14212556 113.75525644 94.125 119.3125 C94.12886719 120.58673828 94.13273438 121.86097656 94.13671875 123.17382812 C94.13542969 124.39134766 94.13414062 125.60886719 94.1328125 126.86328125 C94.13168457 127.96969971 94.13055664 129.07611816 94.12939453 130.21606445 C94 133 94 133 93 136 C92.01 136 91.02 136 90 136 C89.71914551 135.28682617 89.43829102 134.57365234 89.14892578 133.83886719 C77.54615818 104.51422535 63.80687042 77.43305757 45 52 C44.56977539 51.41669922 44.13955078 50.83339844 43.69628906 50.23242188 C31.04316206 33.18379017 16.70208287 17.32165864 1.4765625 2.5390625 C0 1 0 1 0 0 Z " fill="#FEFEFE" transform="translate(843,95)"/>
</svg>
